<?xml version="1.0" encoding="UTF-8" standalone="no"?>
<!-- Generator: Gravit.io --><svg xmlns="http://www.w3.org/2000/svg" xmlns:xlink="http://www.w3.org/1999/xlink"
    style="isolation:isolate" viewBox="141 253 1120.104 839.462" width="1120.104pt" height="839.462pt">
    <defs>
        <clipPath id="_clipPath_RtLI5tZVcyijUhNOIzMZPYkudWQVk6ll">
            <rect x="141" y="253" width="1120.104" height="839.462" />
        </clipPath>
    </defs>
    <g clip-path="url(#_clipPath_RtLI5tZVcyijUhNOIzMZPYkudWQVk6ll)">
        <path
            d=" M 141 713 C 147.333 647 186.656 586.87 248 544 C 252.828 547.488 254.505 555.165 253 567 C 247.463 589.946 243.807 617.29 242 649 C 276.526 612.556 320.869 582.233 375 558 C 357.383 580.996 349.393 606.673 351 635 C 382.149 603.805 412.825 594.815 443 608 C 338.5 713 338.667 842 419 897 C 490.607 941.042 565.284 906.386 643 793 L 728 864 C 671.156 991.796 585.833 1060.139 472 1073 C 377.026 1081.303 302.713 1051.323 249 979 C 234.641 958.209 222.937 958.406 223 979 C 223.607 992.187 226.617 1004.197 232 1015 C 154.385 946.677 134.395 846.021 172 713 C 180 692.625 173.344 684.281 162 693 L 141 713 L 141 713 L 141 713 Z  M 260 608 C 296.283 574.251 339.293 549.928 389 535 C 371.761 529.918 354.771 526.928 338 526 C 362.75 493.5 432.75 473.75 484 482 C 453.931 482.805 421.941 492.815 388 512 C 420.034 517.481 436.378 522.491 437 527 C 409.495 539.245 385.848 562.932 372 596 C 412.313 570.75 459.75 585.375 475 615 C 486.616 637.565 480 671.625 453 692 C 466.948 693.882 480.292 692.225 493 687 C 488.15 701.826 477.494 714.502 461 725 C 494.587 725.26 531.141 706.922 553 672 C 520.106 681.196 511.116 663.872 526 620 C 502 641.5 484.75 617.25 512 570 C 506.629 565.112 488.649 563.465 460 563 C 496.352 548.735 581.746 541.72 589 561 C 592.371 569.959 588.381 582.302 577 598 C 646.124 598.159 665.667 618.333 657 659 C 688.349 642.76 716.25 594 712 539 C 702 557.667 690.677 568.343 678 571 C 680.365 557.877 672.708 547.887 655 541 C 668.077 502.095 637.087 450.439 562 386 C 524.86 354.127 486 304.667 491 265 Q 469 304 481 345 C 547.25 406.5 596.126 456.031 598 482 C 580.941 451.827 540.938 414.563 492 370 C 457.032 340.99 428.063 299.25 429 253 C 411.26 273.426 398.25 338 415 379 C 452 407.25 468.407 430.98 470 450 C 456.705 424.972 424.333 403.333 381 381 C 371.875 376.297 329.333 354.333 309 313 C 301.414 336.089 304.757 363.433 319 389 C 299.667 382.333 270.031 379.739 238 381 C 271.665 395.173 290.5 420.375 295 436 C 297.675 445.287 278.842 458.651 238 482 C 224.848 489.519 205.375 496.375 176 521 C 258.312 503.883 286.322 532.893 260 608 L 260 608 L 260 608 Z  M 541 574 C 529 605.5 540.207 630.311 573 651 C 591.241 662.508 597.173 676.798 598 694 C 599.9 733.541 619.875 759 657 785 C 667.475 792.336 702.618 809.043 749 864 C 763.875 881.625 768.666 907.073 764 934 C 752.415 1000.858 776.101 1045.878 835 1069 C 806.153 1033.084 806.163 996.761 835 960 C 851.333 1092 992.667 1140 1102 1036 C 1075.723 1046.105 1041.4 1038.449 999 1013 C 1191 1037 1240 774 1015 764 C 1113.333 810 1055.333 908.667 956 897 C 989.333 854 990 790.667 939 752 C 954 789.5 911.5 855.5 844 802 L 726 702 C 711.16 693.113 698.25 688.125 680 689 C 653.924 690.25 646.242 684.684 642 661 C 636.453 630.031 631.431 622.004 601 620 C 558.167 617.18 538.177 601.857 541 574 L 541 574 Z  M 782 729 C 835.466 627.173 875.109 562.781 927 546 C 1086 495 1185 687 1146 802 C 1183.032 832.809 1194.709 871.486 1181 918 C 1275.615 802.432 1288.289 675.829 1209 544 C 1181.333 498 1102.5 421.75 999 450 C 935.625 479.063 932.25 449.438 985 420 C 961.582 420.48 929.786 435.193 894 469 C 854.719 506.109 837.703 489.938 873 446 C 831.986 468.558 778.5 523.875 757 596 C 785.426 553.6 892 479.5 985 493 C 897 496 792.333 561.333 709 678 C 724.691 682.053 749.034 699.063 782 729 Z "
            fill-rule="evenodd" fill="#edf7fa" />
    </g>
</svg>