<?xml version="1.0" encoding="UTF-8" standalone="no"?>
<!-- Generator: Gravit.io --><svg xmlns="http://www.w3.org/2000/svg" xmlns:xlink="http://www.w3.org/1999/xlink"
    style="isolation:isolate" viewBox="490.291 -452.406 1329.809 1377.922" width="1329.809pt" height="1377.922pt">
    <defs>
        <clipPath id="_clipPath_Ifcpi6RqVZIhraabRlWWtEucdqlfEXN7">
            <rect x="490.291" y="-452.406" width="1329.809" height="1377.922" />
        </clipPath>
    </defs>
    <g clip-path="url(#_clipPath_Ifcpi6RqVZIhraabRlWWtEucdqlfEXN7)">
        <path
            d=" M 742.213 -25.225 L 742.213 196.128 L 924.223 279.995 L 924.223 58.642 L 742.213 -25.225 L 742.213 -25.225 L 742.213 -25.225 L 742.213 -25.225 L 742.213 -25.225 L 742.213 -25.225 L 742.213 -25.225 L 742.213 -25.225 L 742.213 -25.225 L 742.213 -25.225 L 742.213 -25.225 L 742.213 -25.225 L 742.213 -25.225 L 742.213 -25.225 L 742.213 -25.225 L 742.213 -25.225 L 742.213 -25.225 L 742.213 -25.225 L 742.213 -25.225 L 742.213 -25.225 L 742.213 -25.225 L 742.213 -25.225 L 742.213 -25.225 L 742.213 -25.225 L 742.213 -25.225 L 742.213 -25.225 L 742.213 -25.225 Z  M 742.213 231.875 L 742.213 455.978 L 924.223 539.844 L 924.223 315.741 L 742.213 231.875 L 742.213 231.875 L 742.213 231.875 L 742.213 231.875 L 742.213 231.875 L 742.213 231.875 L 742.213 231.875 L 742.213 231.875 L 742.213 231.875 L 742.213 231.875 L 742.213 231.875 L 742.213 231.875 L 742.213 231.875 L 742.213 231.875 L 742.213 231.875 L 742.213 231.875 L 742.213 231.875 L 742.213 231.875 L 742.213 231.875 L 742.213 231.875 L 742.213 231.875 L 742.213 231.875 L 742.213 231.875 L 742.213 231.875 L 742.213 231.875 L 742.213 231.875 Z  M 959.402 332.24 L 959.402 554.968 L 1139.883 641.584 L 1139.883 416.107 L 959.402 332.24 L 959.402 332.24 L 959.402 332.24 L 959.402 332.24 L 959.402 332.24 L 959.402 332.24 L 959.402 332.24 L 959.402 332.24 L 959.402 332.24 L 959.402 332.24 L 959.402 332.24 L 959.402 332.24 L 959.402 332.24 L 959.402 332.24 L 959.402 332.24 L 959.402 332.24 L 959.402 332.24 L 959.402 332.24 L 959.402 332.24 L 959.402 332.24 L 959.402 332.24 L 959.402 332.24 L 959.402 332.24 L 959.402 332.24 L 959.402 332.24 Z  M 526.554 131.509 L 526.554 354.238 L 707.035 440.854 L 707.035 215.376 L 526.554 131.509 L 526.554 131.509 L 526.554 131.509 L 526.554 131.509 L 526.554 131.509 L 526.554 131.509 L 526.554 131.509 L 526.554 131.509 L 526.554 131.509 L 526.554 131.509 L 526.554 131.509 L 526.554 131.509 L 526.554 131.509 L 526.554 131.509 L 526.554 131.509 L 526.554 131.509 L 526.554 131.509 L 526.554 131.509 L 526.554 131.509 L 526.554 131.509 L 526.554 131.509 L 526.554 131.509 L 526.554 131.509 L 526.554 131.509 Z  M 1354.012 332.24 L 1354.012 554.968 L 1173.532 641.584 L 1173.532 416.107 L 1354.012 332.24 L 1354.012 332.24 L 1354.012 332.24 L 1354.012 332.24 L 1354.012 332.24 L 1354.012 332.24 L 1354.012 332.24 L 1354.012 332.24 L 1354.012 332.24 L 1354.012 332.24 L 1354.012 332.24 L 1354.012 332.24 L 1354.012 332.24 L 1354.012 332.24 L 1354.012 332.24 L 1354.012 332.24 L 1354.012 332.24 L 1354.012 332.24 L 1354.012 332.24 L 1354.012 332.24 L 1354.012 332.24 L 1354.012 332.24 L 1354.012 332.24 Z  M 1788.39 131.509 L 1788.39 354.238 L 1607.909 440.854 L 1607.909 215.376 L 1788.39 131.509 L 1788.39 131.509 L 1788.39 131.509 L 1788.39 131.509 L 1788.39 131.509 L 1788.39 131.509 L 1788.39 131.509 L 1788.39 131.509 L 1788.39 131.509 L 1788.39 131.509 L 1788.39 131.509 L 1788.39 131.509 L 1788.39 131.509 L 1788.39 131.509 L 1788.39 131.509 L 1788.39 131.509 L 1788.39 131.509 L 1788.39 131.509 L 1788.39 131.509 L 1788.39 131.509 L 1788.39 131.509 L 1788.39 131.509 Z  M 742.213 491.724 L 742.213 713.077 L 924.223 796.944 L 924.223 575.591 L 742.213 491.724 L 742.213 491.724 L 742.213 491.724 L 742.213 491.724 L 742.213 491.724 L 742.213 491.724 L 742.213 491.724 L 742.213 491.724 L 742.213 491.724 L 742.213 491.724 L 742.213 491.724 L 742.213 491.724 L 742.213 491.724 L 742.213 491.724 L 742.213 491.724 L 742.213 491.724 L 742.213 491.724 L 742.213 491.724 L 742.213 491.724 L 742.213 491.724 L 742.213 491.724 Z  M 1574.26 -25.225 L 1574.26 196.128 L 1392.25 279.995 L 1392.25 58.642 L 1574.26 -25.225 L 1574.26 -25.225 L 1574.26 -25.225 L 1574.26 -25.225 L 1574.26 -25.225 L 1574.26 -25.225 L 1574.26 -25.225 L 1574.26 -25.225 L 1574.26 -25.225 L 1574.26 -25.225 L 1574.26 -25.225 L 1574.26 -25.225 L 1574.26 -25.225 L 1574.26 -25.225 L 1574.26 -25.225 L 1574.26 -25.225 L 1574.26 -25.225 L 1574.26 -25.225 L 1574.26 -25.225 L 1574.26 -25.225 Z  M 1574.26 231.875 L 1574.26 453.228 L 1392.25 537.095 L 1392.25 315.741 L 1574.26 231.875 L 1574.26 231.875 L 1574.26 231.875 L 1574.26 231.875 L 1574.26 231.875 L 1574.26 231.875 L 1574.26 231.875 L 1574.26 231.875 L 1574.26 231.875 L 1574.26 231.875 L 1574.26 231.875 L 1574.26 231.875 L 1574.26 231.875 L 1574.26 231.875 L 1574.26 231.875 L 1574.26 231.875 L 1574.26 231.875 L 1574.26 231.875 L 1574.26 231.875 Z  M 1574.26 491.724 L 1574.26 713.077 L 1392.25 796.944 L 1392.25 575.591 L 1574.26 491.724 L 1574.26 491.724 L 1574.26 491.724 L 1574.26 491.724 L 1574.26 491.724 L 1574.26 491.724 L 1574.26 491.724 L 1574.26 491.724 L 1574.26 491.724 L 1574.26 491.724 L 1574.26 491.724 L 1574.26 491.724 L 1574.26 491.724 L 1574.26 491.724 L 1574.26 491.724 L 1574.26 491.724 L 1574.26 491.724 L 1574.26 491.724 Z  M 765.156 -49.973 L 937.989 28.395 L 1116.94 -54.097 L 945.636 -133.84 L 765.156 -49.973 L 765.156 -49.973 L 765.156 -49.973 L 765.156 -49.973 L 765.156 -49.973 L 765.156 -49.973 L 765.156 -49.973 L 765.156 -49.973 L 765.156 -49.973 L 765.156 -49.973 L 765.156 -49.973 L 765.156 -49.973 L 765.156 -49.973 L 765.156 -49.973 L 765.156 -49.973 L 765.156 -49.973 L 765.156 -49.973 Z  M 983.874 -151.713 L 1156.707 -71.971 L 1331.07 -151.713 L 1156.707 -231.455 L 983.874 -151.713 L 983.874 -151.713 L 983.874 -151.713 L 983.874 -151.713 L 983.874 -151.713 L 983.874 -151.713 L 983.874 -151.713 L 983.874 -151.713 L 983.874 -151.713 L 983.874 -151.713 L 983.874 -151.713 L 983.874 -151.713 L 983.874 -151.713 L 983.874 -151.713 L 983.874 -151.713 L 983.874 -151.713 Z  M 1196.474 -249.328 L 1369.307 -169.586 L 1546.729 -250.703 L 1373.896 -330.445 L 1196.474 -249.328 L 1196.474 -249.328 L 1196.474 -249.328 L 1196.474 -249.328 L 1196.474 -249.328 L 1196.474 -249.328 L 1196.474 -249.328 L 1196.474 -249.328 L 1196.474 -249.328 L 1196.474 -249.328 L 1196.474 -249.328 L 1196.474 -249.328 L 1196.474 -249.328 L 1196.474 -249.328 L 1196.474 -249.328 Z  M 1198.004 -54.097 L 1378.484 28.395 L 1549.788 -49.973 L 1370.837 -133.84 L 1198.004 -54.097 L 1198.004 -54.097 L 1198.004 -54.097 L 1198.004 -54.097 L 1198.004 -54.097 L 1198.004 -54.097 L 1198.004 -54.097 L 1198.004 -54.097 L 1198.004 -54.097 L 1198.004 -54.097 L 1198.004 -54.097 L 1198.004 -54.097 L 1198.004 -54.097 L 1198.004 -54.097 Z  M 768.215 -250.703 L 945.636 -169.586 L 1116.94 -249.328 L 941.048 -330.445 L 768.215 -250.703 L 768.215 -250.703 L 768.215 -250.703 L 768.215 -250.703 L 768.215 -250.703 L 768.215 -250.703 L 768.215 -250.703 L 768.215 -250.703 L 768.215 -250.703 L 768.215 -250.703 L 768.215 -250.703 L 768.215 -250.703 L 768.215 -250.703 Z  M 723.859 -67.846 L 904.34 -151.713 L 729.977 -232.83 L 580.086 -165.461 Q 560.406 -156.213 555.614 -147.588 Q 578.013 -136.863 723.859 -67.846 L 723.859 -67.846 L 723.859 -67.846 L 723.859 -67.846 L 723.859 -67.846 L 723.859 -67.846 L 723.859 -67.846 L 723.859 -67.846 L 723.859 -67.846 L 723.859 -67.846 L 723.859 -67.846 L 723.859 -67.846 Z  M 707.035 -40.349 L 707.035 179.63 L 526.554 95.763 L 526.554 -94.066 Q 527.39 -113.098 535.731 -120.091 Q 557.933 -109.769 707.035 -40.349 L 707.035 -40.349 L 707.035 -40.349 L 707.035 -40.349 L 707.035 -40.349 L 707.035 -40.349 L 707.035 -40.349 L 707.035 -40.349 L 707.035 -40.349 L 707.035 -40.349 L 707.035 -40.349 Z  M 1607.909 -40.349 L 1607.909 179.63 L 1788.39 95.763 L 1788.39 -94.066 Q 1787.553 -113.098 1779.213 -120.091 Q 1757.011 -109.769 1607.909 -40.349 L 1607.909 -40.349 L 1607.909 -40.349 L 1607.909 -40.349 L 1607.909 -40.349 L 1607.909 -40.349 L 1607.909 -40.349 L 1607.909 -40.349 L 1607.909 -40.349 L 1607.909 -40.349 Z  M 1592.614 -67.846 L 1412.133 -151.713 L 1586.496 -232.83 L 1736.387 -165.461 Q 1756.067 -156.213 1760.859 -147.588 Q 1738.46 -136.863 1592.614 -67.846 L 1592.614 -67.846 L 1592.614 -67.846 L 1592.614 -67.846 L 1592.614 -67.846 L 1592.614 -67.846 L 1592.614 -67.846 L 1592.614 -67.846 L 1592.614 -67.846 Z  M 707.035 696.579 L 707.035 475.226 L 526.554 391.359 Q 526.554 524.033 526.554 561.842 C 526.554 599.651 552.46 629.619 580.086 641.584 Q 607.713 653.55 707.035 696.579 L 707.035 696.579 L 707.035 696.579 L 707.035 696.579 L 707.035 696.579 L 707.035 696.579 L 707.035 696.579 L 707.035 696.579 Z  M 1607.909 696.579 L 1607.909 475.226 L 1788.39 391.359 Q 1788.39 524.033 1788.39 561.842 C 1788.39 599.651 1762.484 629.619 1734.857 641.584 Q 1707.231 653.55 1607.909 696.579 L 1607.909 696.579 L 1607.909 696.579 L 1607.909 696.579 L 1607.909 696.579 L 1607.909 696.579 L 1607.909 696.579 Z  M 959.402 593.464 L 959.402 813.443 L 1107.763 880.811 Q 1125.866 889.082 1139.883 891.81 Q 1139.883 862.938 1139.883 677.331 L 959.402 593.464 L 959.402 593.464 L 959.402 593.464 L 959.402 593.464 L 959.402 593.464 L 959.402 593.464 Z  M 1354.012 593.464 L 1354.012 813.443 L 1205.651 880.811 Q 1187.548 889.082 1173.532 891.81 Q 1173.532 862.938 1173.532 677.331 L 1354.012 593.464 L 1354.012 593.464 L 1354.012 593.464 L 1354.012 593.464 L 1354.012 593.464 Z  M 959.402 295.118 L 1139.883 380.36 Q 1139.883 238.686 1139.883 148.008 Q 1120.704 147.138 1097.057 137.009 L 959.402 75.14 L 959.402 295.118 L 959.402 295.118 L 959.402 295.118 L 959.402 295.118 Z  M 1354.012 295.118 L 1173.532 380.36 Q 1173.532 238.686 1173.532 148.008 Q 1192.71 147.138 1216.358 137.009 L 1354.012 75.14 L 1354.012 295.118 L 1354.012 295.118 L 1354.012 295.118 Z  M 977.756 46.268 L 1156.707 -36.224 L 1337.188 46.268 L 1196.474 110.887 C 1172.385 123.037 1145.889 123.051 1116.94 110.887 L 977.756 46.268 L 977.756 46.268 Z  M 490.399 523.572 C 492.482 433.973 490.399 0.146 490.399 -52.497 C 490.399 -105.139 494.585 -163.12 562.285 -191.358 C 629.986 -219.597 1013.467 -400.112 1074.667 -429.21 C 1135.868 -458.308 1169.708 -461.917 1239.853 -429.21 C 1339.838 -382.589 1701.4 -219.317 1750.152 -191.358 C 1798.905 -163.399 1818.98 -151.541 1818.98 -52.497 C 1818.98 46.547 1819.533 455.971 1819.533 523.572 C 1819.533 591.173 1831.726 631.502 1743.058 672.057 C 1654.39 712.612 1313.153 866.117 1239.853 900.059 C 1166.553 934.001 1147.626 934.001 1074.667 900.059 C 1001.709 866.117 608.15 689.877 562.285 667.707 C 516.421 645.537 488.317 613.171 490.399 523.572 L 490.399 523.572 L 490.399 523.572 L 490.399 523.572 L 490.399 523.572 L 490.399 523.572 L 490.399 523.572 L 490.399 523.572 L 490.399 523.572 L 490.399 523.572 L 490.399 523.572 L 490.399 523.572 L 490.399 523.572 L 490.399 523.572 L 490.399 523.572 L 490.399 523.572 L 490.399 523.572 L 490.399 523.572 L 490.399 523.572 L 490.399 523.572 L 490.399 523.572 L 490.399 523.572 L 490.399 523.572 L 490.399 523.572 L 490.399 523.572 L 490.399 523.572 L 490.399 523.572 Z  M 977.756 -348.318 L 1156.707 -265.827 L 1337.188 -348.318 L 1196.474 -412.937 C 1172.385 -425.087 1145.889 -425.101 1116.94 -412.937 L 977.756 -348.318 Z "
            fill-rule="evenodd" fill="#edf7fa" />
    </g>
</svg>