<svg width="131" height="131" viewBox="0 0 131 131" fill="none" xmlns="http://www.w3.org/2000/svg">
<g clip-path="url(#clip0_182_154)">
<path d="M6.646 46.4158C16.423 46.2577 26.237 46.4527 36.0137 46.2947C37.8552 46.2598 38.7696 48.8831 37.0874 49.7593C34.0262 51.6959 31.013 53.4137 27.9519 55.3502C31.576 56.071 34.5784 54.925 38.0277 53.3079C39.5289 52.735 41.3335 52.3467 42.6684 53.5736C44.7805 55.4393 44.1347 59.4263 44.043 61.9328C43.79 68.3081 42.749 74.6169 43.2836 81.059C44.0625 88.4765 48.1404 86.0851 51.7667 82.096C55.6591 77.9385 58.9559 72.8394 61.5501 67.8081C66.0142 58.9572 70.3189 49.265 77.9381 42.7502C82.1709 39.1308 90.7565 37.0895 94.2346 43.1765C98.5633 50.6082 98.5155 62.3159 96.17 70.3917C95.21 74.7658 84.9465 102.73 97.3286 96.9682C106.394 92.7398 112.218 79.2621 116.501 70.714C117.092 69.5866 118.874 70.3423 118.501 71.5201C115.432 80.8071 109.951 90.1129 103.023 97.1321C99.2269 100.852 90.1722 104.509 87.8179 96.9576C85.0491 88.1621 90.2856 77.8808 92.8122 69.5021C94.5336 64.2696 94.2173 57.8778 93.794 52.4954C92.8732 41.024 83.7508 41.3331 77.3928 48.3687C69.6449 57.0367 66.2656 68.7802 59.8158 78.3224C57.4725 81.6882 49.8885 93.2662 43.9078 89.7044C37.0175 85.588 39.4984 72.7181 40.1026 66.309C40.1397 66.6622 41.3528 55.9127 39.8994 56.2671C38.4463 56.6213 36.9825 57.5473 35.4812 58.1201C32.6122 59.182 29.9347 59.3688 27.2316 58.6304C28.9815 61.1019 30.4651 63.7418 31.6826 66.5501C32.2674 68.0635 30.3561 69.461 29.0098 68.8059C19.9005 63.8332 13.3898 55.8982 5.40417 49.4612C4.1061 48.5876 4.93739 46.3667 6.646 46.4158ZM22.6236 56.6489C22.1131 55.8419 22.6084 55.1519 23.2258 54.9496C23.2367 54.3777 23.4658 53.8561 23.9982 53.5193C25.7284 52.4247 27.5917 51.2459 29.322 50.1514C23.3611 50.1555 17.5331 50.0756 11.5722 50.0797C16.2698 54.2649 20.6532 58.8372 25.713 62.4162C24.7401 60.5836 23.6818 58.6163 22.6236 56.6489Z" fill="#E2C044"/>
</g>
<defs>
<clipPath id="clip0_182_154">
<rect width="95" height="94" fill="white" transform="matrix(-0.53462 -0.845092 -0.845092 0.53462 130.228 80.2837)"/>
</clipPath>
</defs>
</svg>
